<?xml version="1.0" encoding="UTF-8" standalone="no"?>
<!-- Created with Inkscape (http://www.inkscape.org/) -->

<svg
   width="580px"
   height="330px"
   viewBox="0 0 58.00074 33.000427"
   version="1.1"
   id="svg1"
   inkscape:version="1.3.2 (091e20e, 2023-11-25)"
   sodipodi:docname="permutation.svg"
   xmlns:inkscape="http://www.inkscape.org/namespaces/inkscape"
   xmlns:sodipodi="http://sodipodi.sourceforge.net/DTD/sodipodi-0.dtd"
   xmlns="http://www.w3.org/2000/svg"
   xmlns:svg="http://www.w3.org/2000/svg">
  <sodipodi:namedview
     id="namedview1"
     pagecolor="#ffffff"
     bordercolor="#000000"
     borderopacity="0.25"
     inkscape:showpageshadow="2"
     inkscape:pageopacity="0.0"
     inkscape:pagecheckerboard="0"
     inkscape:deskcolor="#d1d1d1"
     inkscape:document-units="mm"
     inkscape:zoom="1.1715368"
     inkscape:cx="123.34226"
     inkscape:cy="80.66328"
     inkscape:window-width="1512"
     inkscape:window-height="840"
     inkscape:window-x="0"
     inkscape:window-y="33"
     inkscape:window-maximized="0"
     inkscape:current-layer="layer1" />
  <defs
     id="defs1">
    <clipPath
       clipPathUnits="userSpaceOnUse"
       id="clipPath152">
      <path
         d="M 0,0 H 612 V 792 H 0 Z"
         transform="translate(-220.42401,-175.044)"
         id="path152" />
    </clipPath>
    <clipPath
       clipPathUnits="userSpaceOnUse"
       id="clipPath154">
      <path
         d="M 0,0 H 612 V 792 H 0 Z"
         transform="translate(-220.42401,-175.044)"
         id="path154" />
    </clipPath>
    <clipPath
       clipPathUnits="userSpaceOnUse"
       id="clipPath156">
      <path
         d="M 0,0 H 612 V 792 H 0 Z"
         transform="translate(-220.42401,-175.044)"
         id="path156" />
    </clipPath>
    <clipPath
       clipPathUnits="userSpaceOnUse"
       id="clipPath158">
      <path
         d="M 0,0 H 612 V 792 H 0 Z"
         transform="translate(-220.42401,-175.044)"
         id="path158" />
    </clipPath>
    <clipPath
       clipPathUnits="userSpaceOnUse"
       id="clipPath160">
      <path
         d="M 0,0 H 612 V 792 H 0 Z"
         transform="translate(-220.42401,-175.044)"
         id="path160" />
    </clipPath>
    <clipPath
       clipPathUnits="userSpaceOnUse"
       id="clipPath162">
      <path
         d="M 0,0 H 612 V 792 H 0 Z"
         transform="translate(-220.42401,-175.044)"
         id="path162" />
    </clipPath>
    <clipPath
       clipPathUnits="userSpaceOnUse"
       id="clipPath164">
      <path
         d="M 0,0 H 612 V 792 H 0 Z"
         transform="translate(-220.42401,-175.044)"
         id="path164" />
    </clipPath>
    <clipPath
       clipPathUnits="userSpaceOnUse"
       id="clipPath166">
      <path
         d="M 0,0 H 612 V 792 H 0 Z"
         transform="translate(-220.42401,-175.044)"
         id="path166" />
    </clipPath>
    <clipPath
       clipPathUnits="userSpaceOnUse"
       id="clipPath168">
      <path
         d="M 0,0 H 612 V 792 H 0 Z"
         transform="translate(-220.42401,-175.044)"
         id="path168" />
    </clipPath>
    <clipPath
       clipPathUnits="userSpaceOnUse"
       id="clipPath170">
      <path
         d="M 0,0 H 612 V 792 H 0 Z"
         transform="translate(-220.42401,-175.044)"
         id="path170" />
    </clipPath>
    <clipPath
       clipPathUnits="userSpaceOnUse"
       id="clipPath172">
      <path
         d="M 0,0 H 612 V 792 H 0 Z"
         transform="translate(-220.42401,-175.044)"
         id="path172" />
    </clipPath>
    <clipPath
       clipPathUnits="userSpaceOnUse"
       id="clipPath174">
      <path
         d="M 0,0 H 612 V 792 H 0 Z"
         transform="translate(-220.42401,-175.044)"
         id="path174" />
    </clipPath>
    <clipPath
       clipPathUnits="userSpaceOnUse"
       id="clipPath176">
      <path
         d="M 0,0 H 612 V 792 H 0 Z"
         transform="translate(-220.42401,-175.044)"
         id="path176" />
    </clipPath>
    <clipPath
       clipPathUnits="userSpaceOnUse"
       id="clipPath178">
      <path
         d="M 0,0 H 612 V 792 H 0 Z"
         transform="rotate(90,218.27915,-30.491649)"
         id="path178" />
    </clipPath>
    <clipPath
       clipPathUnits="userSpaceOnUse"
       id="clipPath180">
      <path
         d="M 0,0 H 612 V 792 H 0 Z"
         transform="translate(-220.42401,-175.044)"
         id="path180" />
    </clipPath>
    <clipPath
       clipPathUnits="userSpaceOnUse"
       id="clipPath182">
      <path
         d="M 0,0 H 612 V 792 H 0 Z"
         transform="matrix(0.37140101,0.92851752,-0.92851752,0.37140101,61.825042,-348.64059)"
         id="path182" />
    </clipPath>
    <clipPath
       clipPathUnits="userSpaceOnUse"
       id="clipPath184">
      <path
         d="M 0,0 H 612 V 792 H 0 Z"
         transform="translate(-220.42401,-175.044)"
         id="path184" />
    </clipPath>
    <clipPath
       clipPathUnits="userSpaceOnUse"
       id="clipPath186">
      <path
         d="M 0,0 H 612 V 792 H 0 Z"
         transform="matrix(0.624735,0.78091372,-0.78091372,0.624735,-76.814973,-392.17025)"
         id="path186" />
    </clipPath>
    <clipPath
       clipPathUnits="userSpaceOnUse"
       id="clipPath188">
      <path
         d="M 0,0 H 612 V 792 H 0 Z"
         transform="translate(-220.42401,-175.044)"
         id="path188" />
    </clipPath>
    <clipPath
       clipPathUnits="userSpaceOnUse"
       id="clipPath190">
      <path
         d="M 0,0 H 612 V 792 H 0 Z"
         transform="matrix(0.624735,0.78091372,-0.78091372,0.624735,-94.52421,-414.30665)"
         id="path190" />
    </clipPath>
    <clipPath
       clipPathUnits="userSpaceOnUse"
       id="clipPath192">
      <path
         d="M 0,0 H 612 V 792 H 0 Z"
         transform="translate(-220.42401,-175.044)"
         id="path192" />
    </clipPath>
    <clipPath
       clipPathUnits="userSpaceOnUse"
       id="clipPath194">
      <path
         d="M 0,0 H 612 V 792 H 0 Z"
         transform="matrix(-0.76826076,0.64020899,-0.64020899,-0.76826076,337.70683,-42.933685)"
         id="path194" />
    </clipPath>
    <clipPath
       clipPathUnits="userSpaceOnUse"
       id="clipPath196">
      <path
         d="M 0,0 H 612 V 792 H 0 Z"
         transform="translate(-220.42401,-175.044)"
         id="path196" />
    </clipPath>
    <clipPath
       clipPathUnits="userSpaceOnUse"
       id="clipPath198">
      <path
         d="M 0,0 H 612 V 792 H 0 Z"
         transform="matrix(-0.624735,0.78091372,-0.78091372,-0.624735,357.98141,-151.32173)"
         id="path198" />
    </clipPath>
  </defs>
  <g
     inkscape:label="Layer 1"
     inkscape:groupmode="layer"
     id="layer1"
     transform="translate(-76.005706,-132.09738)">
    <path
       id="path151"
       d="m 39.68556,70.867 c 0,6.26232 -5.07646,11.33876 -11.33876,11.33876 -6.2623,0 -11.33876,-5.07644 -11.33876,-11.33876 0,-6.2623 5.07646,-11.33876 11.33876,-11.33876 6.2623,0 11.33876,5.07646 11.33876,11.33876 z"
       style="fill:none;stroke:#000000;stroke-width:0.3985;stroke-linecap:butt;stroke-linejoin:miter;stroke-miterlimit:10;stroke-dasharray:none;stroke-opacity:1"
       transform="matrix(0.35277776,0,0,-0.35277776,70.005648,161.09774)"
       clip-path="url(#clipPath152)" />
    <path
       id="path153"
       d="m 39.68556,0 c 0,6.2623 -5.07646,11.33876 -11.33876,11.33876 C 22.0845,11.33876 17.00804,6.2623 17.00804,0 c 0,-6.2623 5.07646,-11.33876 11.33876,-11.33876 6.2623,0 11.33876,5.07646 11.33876,11.33876 z"
       style="fill:none;stroke:#000000;stroke-width:0.3985;stroke-linecap:butt;stroke-linejoin:miter;stroke-miterlimit:10;stroke-dasharray:none;stroke-opacity:1"
       transform="matrix(0.35277776,0,0,-0.35277776,70.005648,161.09774)"
       clip-path="url(#clipPath154)" />
    <path
       id="path155"
       d="m 68.03238,70.867 c 0,6.26232 -5.07646,11.33876 -11.33876,11.33876 -6.26232,0 -11.33876,-5.07644 -11.33876,-11.33876 0,-6.2623 5.07644,-11.33876 11.33876,-11.33876 6.2623,0 11.33876,5.07646 11.33876,11.33876 z"
       style="fill:none;stroke:#000000;stroke-width:0.3985;stroke-linecap:butt;stroke-linejoin:miter;stroke-miterlimit:10;stroke-dasharray:none;stroke-opacity:1"
       transform="matrix(0.35277776,0,0,-0.35277776,70.005648,161.09774)"
       clip-path="url(#clipPath156)" />
    <path
       id="path157"
       d="m 68.03238,0 c 0,6.2623 -5.07646,11.33876 -11.33876,11.33876 C 50.4313,11.33876 45.35486,6.2623 45.35486,0 c 0,-6.2623 5.07644,-11.33876 11.33876,-11.33876 6.2623,0 11.33876,5.07646 11.33876,11.33876 z"
       style="fill:none;stroke:#000000;stroke-width:0.3985;stroke-linecap:butt;stroke-linejoin:miter;stroke-miterlimit:10;stroke-dasharray:none;stroke-opacity:1"
       transform="matrix(0.35277776,0,0,-0.35277776,70.005648,161.09774)"
       clip-path="url(#clipPath158)" />
    <path
       id="path159"
       d="m 96.37918,70.867 c 0,6.26232 -5.07646,11.33876 -11.33876,11.33876 -6.2623,0 -11.33876,-5.07644 -11.33876,-11.33876 0,-6.2623 5.07646,-11.33876 11.33876,-11.33876 6.2623,0 11.33876,5.07646 11.33876,11.33876 z"
       style="fill:none;stroke:#000000;stroke-width:0.3985;stroke-linecap:butt;stroke-linejoin:miter;stroke-miterlimit:10;stroke-dasharray:none;stroke-opacity:1"
       transform="matrix(0.35277776,0,0,-0.35277776,70.005648,161.09774)"
       clip-path="url(#clipPath160)" />
    <path
       id="path161"
       d="m 96.37918,0 c 0,6.2623 -5.07646,11.33876 -11.33876,11.33876 -6.2623,0 -11.33876,-5.07646 -11.33876,-11.33876 0,-6.2623 5.07646,-11.33876 11.33876,-11.33876 6.2623,0 11.33876,5.07646 11.33876,11.33876 z"
       style="fill:none;stroke:#000000;stroke-width:0.3985;stroke-linecap:butt;stroke-linejoin:miter;stroke-miterlimit:10;stroke-dasharray:none;stroke-opacity:1"
       transform="matrix(0.35277776,0,0,-0.35277776,70.005648,161.09774)"
       clip-path="url(#clipPath162)" />
    <path
       id="path163"
       d="m 124.726,70.867 c 0,6.26232 -5.0765,11.33876 -11.3388,11.33876 -6.2623,0 -11.3387,-5.07644 -11.3387,-11.33876 0,-6.2623 5.0764,-11.33876 11.3387,-11.33876 6.2623,0 11.3388,5.07646 11.3388,11.33876 z"
       style="fill:none;stroke:#000000;stroke-width:0.3985;stroke-linecap:butt;stroke-linejoin:miter;stroke-miterlimit:10;stroke-dasharray:none;stroke-opacity:1"
       transform="matrix(0.35277776,0,0,-0.35277776,70.005648,161.09774)"
       clip-path="url(#clipPath164)" />
    <path
       id="path165"
       d="m 124.726,0 c 0,6.2623 -5.0765,11.33876 -11.3388,11.33876 -6.2623,0 -11.3387,-5.07646 -11.3387,-11.33876 0,-6.2623 5.0764,-11.33876 11.3387,-11.33876 6.2623,0 11.3388,5.07646 11.3388,11.33876 z"
       style="fill:none;stroke:#000000;stroke-width:0.3985;stroke-linecap:butt;stroke-linejoin:miter;stroke-miterlimit:10;stroke-dasharray:none;stroke-opacity:1"
       transform="matrix(0.35277776,0,0,-0.35277776,70.005648,161.09774)"
       clip-path="url(#clipPath166)" />
    <path
       id="path167"
       d="m 153.0728,70.867 c 0,6.26232 -5.0765,11.33876 -11.3388,11.33876 -6.2623,0 -11.3387,-5.07644 -11.3387,-11.33876 0,-6.2623 5.0764,-11.33876 11.3387,-11.33876 6.2623,0 11.3388,5.07646 11.3388,11.33876 z"
       style="fill:none;stroke:#000000;stroke-width:0.3985;stroke-linecap:butt;stroke-linejoin:miter;stroke-miterlimit:10;stroke-dasharray:none;stroke-opacity:1"
       transform="matrix(0.35277776,0,0,-0.35277776,70.005648,161.09774)"
       clip-path="url(#clipPath168)" />
    <path
       id="path169"
       d="m 153.0728,0 c 0,6.2623 -5.0765,11.33876 -11.3388,11.33876 -6.2623,0 -11.3387,-5.07646 -11.3387,-11.33876 0,-6.2623 5.0764,-11.33876 11.3387,-11.33876 6.2623,0 11.3388,5.07646 11.3388,11.33876 z"
       style="fill:none;stroke:#000000;stroke-width:0.3985;stroke-linecap:butt;stroke-linejoin:miter;stroke-miterlimit:10;stroke-dasharray:none;stroke-opacity:1"
       transform="matrix(0.35277776,0,0,-0.35277776,70.005648,161.09774)"
       clip-path="url(#clipPath170)" />
    <path
       id="path171"
       d="m 181.4196,70.867 c 0,6.26232 -5.0764,11.33876 -11.3387,11.33876 -6.2624,0 -11.3388,-5.07644 -11.3388,-11.33876 0,-6.2623 5.0764,-11.33876 11.3388,-11.33876 6.2623,0 11.3387,5.07646 11.3387,11.33876 z"
       style="fill:none;stroke:#000000;stroke-width:0.3985;stroke-linecap:butt;stroke-linejoin:miter;stroke-miterlimit:10;stroke-dasharray:none;stroke-opacity:1"
       transform="matrix(0.35277776,0,0,-0.35277776,70.005648,161.09774)"
       clip-path="url(#clipPath172)" />
    <path
       id="path173"
       d="m 181.4196,0 c 0,6.2623 -5.0764,11.33876 -11.3387,11.33876 -6.2624,0 -11.3388,-5.07646 -11.3388,-11.33876 0,-6.2623 5.0764,-11.33876 11.3388,-11.33876 6.2623,0 11.3387,5.07646 11.3387,11.33876 z"
       style="fill:none;stroke:#000000;stroke-width:0.3985;stroke-linecap:butt;stroke-linejoin:miter;stroke-miterlimit:10;stroke-dasharray:none;stroke-opacity:1"
       transform="matrix(0.35277776,0,0,-0.35277776,70.005648,161.09774)"
       clip-path="url(#clipPath174)" />
    <path
       id="path175"
       d="M 28.3468,59.329 V 12.7435"
       style="fill:none;stroke:#ff0000 icc-color(sRGB-IEC61966-2, 0.1, 1, 0, 0);stroke-width:1.59404;stroke-linecap:butt;stroke-linejoin:miter;stroke-miterlimit:10;stroke-dasharray:none;stroke-opacity:1"
       transform="matrix(0.35277776,0,0,-0.35277776,70.005648,161.09774)"
       clip-path="url(#clipPath176)" />
    <path
       id="path177"
       d="M -2.27148,3.02866 C -2.0822,1.8929 0,0.18927 0.56786,0 0,-0.18927 -2.0822,-1.8929 -2.27148,-3.02866"
       style="fill:none;stroke:#ff0000 icc-color(sRGB-IEC61966-2, 0.1, 1, 0, 0);stroke-width:1.27522;stroke-linecap:round;stroke-linejoin:round;stroke-miterlimit:10;stroke-dasharray:none;stroke-opacity:1"
       transform="matrix(0,0.35277776,0.35277776,0,80.005769,156.60211)"
       clip-path="url(#clipPath178)" />
    <path
       id="path179"
       d="M 60.97845,60.15471 80.30789,11.83153"
       style="fill:none;stroke:#ff8000 icc-color(sRGB-IEC61966-2, 0.1, 1, 0.5, 0);stroke-width:1.59404;stroke-linecap:butt;stroke-linejoin:miter;stroke-miterlimit:10;stroke-dasharray:none;stroke-opacity:1"
       transform="matrix(0.35277776,0,0,-0.35277776,70.005648,161.09774)"
       clip-path="url(#clipPath180)" />
    <path
       id="path181"
       d="M -2.27148,3.02866 C -2.0822,1.8929 0,0.18927 0.56786,0 0,-0.18927 -2.0822,-1.8929 -2.27148,-3.02866"
       style="fill:none;stroke:#ff8000 icc-color(sRGB-IEC61966-2, 0.1, 1, 0.5, 0);stroke-width:1.27522;stroke-linecap:round;stroke-linejoin:round;stroke-miterlimit:10;stroke-dasharray:none;stroke-opacity:1"
       transform="matrix(0.13101108,0.327533,0.327533,-0.13101108,98.336491,156.92385)"
       clip-path="url(#clipPath182)" />
    <path
       id="path183"
       d="M 92.2478,61.85788 133.7736,9.95041"
       style="fill:none;stroke:#0000ff icc-color(sRGB-IEC61966-2, 0.1, 0, 0, 1);stroke-width:1.59404;stroke-linecap:butt;stroke-linejoin:miter;stroke-miterlimit:10;stroke-dasharray:none;stroke-opacity:1"
       transform="matrix(0.35277776,0,0,-0.35277776,70.005648,161.09774)"
       clip-path="url(#clipPath184)" />
    <path
       id="path185"
       d="M -2.27148,3.02866 C -2.0822,1.8929 0,0.18927 0.56786,0 0,-0.18927 -2.0822,-1.8929 -2.27148,-3.02866"
       style="fill:none;stroke:#0000ff icc-color(sRGB-IEC61966-2, 0.1, 0, 0, 1);stroke-width:1.27522;stroke-linecap:round;stroke-linejoin:round;stroke-miterlimit:10;stroke-dasharray:none;stroke-opacity:1"
       transform="matrix(0.22036616,0.27545593,0.27545593,-0.22036616,117.198,157.58746)"
       clip-path="url(#clipPath186)" />
    <path
       id="path187"
       d="M 120.5946,61.85788 162.1204,9.95041"
       style="fill:none;stroke:#bf0040 icc-color(sRGB-IEC61966-2, 0.1, 0.75, 0, 0.25);stroke-width:1.59404;stroke-linecap:butt;stroke-linejoin:miter;stroke-miterlimit:10;stroke-dasharray:none;stroke-opacity:1"
       transform="matrix(0.35277776,0,0,-0.35277776,70.005648,161.09774)"
       clip-path="url(#clipPath188)" />
    <path
       id="path189"
       d="M -2.27148,3.02866 C -2.0822,1.8929 0,0.18927 0.56786,0 0,-0.18927 -2.0822,-1.8929 -2.27148,-3.02866"
       style="fill:none;stroke:#bf0040 icc-color(sRGB-IEC61966-2, 0.1, 0.75, 0, 0.25);stroke-width:1.27522;stroke-linecap:round;stroke-linejoin:round;stroke-miterlimit:10;stroke-dasharray:none;stroke-opacity:1"
       transform="matrix(0.22036616,0.27545593,0.27545593,-0.22036616,127.19812,157.58746)"
       clip-path="url(#clipPath190)" />
    <path
       id="path191"
       d="M 132.8707,63.48093 66.48302,8.15778"
       style="fill:none;stroke:#00adef;stroke-width:1.59404;stroke-linecap:butt;stroke-linejoin:miter;stroke-miterlimit:10;stroke-dasharray:none;stroke-opacity:1"
       transform="matrix(0.35277776,0,0,-0.35277776,70.005648,161.09774)"
       clip-path="url(#clipPath192)" />
    <path
       id="path193"
       d="M -2.27148,3.02866 C -2.0822,1.8929 0,0.18927 0.56786,0 0,-0.18927 -2.0822,-1.8929 -2.27148,-3.02866"
       style="fill:none;stroke:#00adef;stroke-width:1.27522;stroke-linecap:round;stroke-linejoin:round;stroke-miterlimit:10;stroke-dasharray:none;stroke-opacity:1"
       transform="matrix(-0.27100035,0.22583069,0.22583069,0.27100035,93.459373,158.21985)"
       clip-path="url(#clipPath194)" />
    <path
       id="path195"
       d="M 162.8735,61.85788 121.3476,9.95041"
       style="fill:none;stroke:#ec008c;stroke-width:1.59404;stroke-linecap:butt;stroke-linejoin:miter;stroke-miterlimit:10;stroke-dasharray:none;stroke-opacity:1"
       transform="matrix(0.35277776,0,0,-0.35277776,70.005648,161.09774)"
       clip-path="url(#clipPath196)" />
    <path
       id="path197"
       d="M -2.27148,3.02866 C -2.0822,1.8929 0,0.18927 0.56786,0 0,-0.18927 -2.0822,-1.8929 -2.27148,-3.02866"
       style="fill:none;stroke:#ec008c;stroke-width:1.27522;stroke-linecap:round;stroke-linejoin:round;stroke-miterlimit:10;stroke-dasharray:none;stroke-opacity:1"
       transform="matrix(-0.22036616,0.27545593,0.27545593,0.22036616,112.81442,157.58746)"
       clip-path="url(#clipPath198)" />
  </g>
</svg>
