<svg xmlns="http://www.w3.org/2000/svg" width="580" height="330" viewBox="0 0 58.001 33"><defs><clipPath id="a" clipPathUnits="userSpaceOnUse"><path d="M-220.424-175.044h612v792h-612Z"/></clipPath><clipPath id="b" clipPathUnits="userSpaceOnUse"><path d="M-220.424-175.044h612v792h-612Z"/></clipPath><clipPath id="c" clipPathUnits="userSpaceOnUse"><path d="M-220.424-175.044h612v792h-612Z"/></clipPath><clipPath id="d" clipPathUnits="userSpaceOnUse"><path d="M-220.424-175.044h612v792h-612Z"/></clipPath><clipPath id="e" clipPathUnits="userSpaceOnUse"><path d="M-220.424-175.044h612v792h-612Z"/></clipPath><clipPath id="f" clipPathUnits="userSpaceOnUse"><path d="M-220.424-175.044h612v792h-612Z"/></clipPath><clipPath id="g" clipPathUnits="userSpaceOnUse"><path d="M-220.424-175.044h612v792h-612Z"/></clipPath><clipPath id="h" clipPathUnits="userSpaceOnUse"><path d="M-220.424-175.044h612v792h-612Z"/></clipPath><clipPath id="i" clipPathUnits="userSpaceOnUse"><path d="M-220.424-175.044h612v792h-612Z"/></clipPath><clipPath id="j" clipPathUnits="userSpaceOnUse"><path d="M-220.424-175.044h612v792h-612Z"/></clipPath><clipPath id="k" clipPathUnits="userSpaceOnUse"><path d="M-220.424-175.044h612v792h-612Z"/></clipPath><clipPath id="l" clipPathUnits="userSpaceOnUse"><path d="M-220.424-175.044h612v792h-612Z"/></clipPath><clipPath id="m" clipPathUnits="userSpaceOnUse"><path d="M-220.424-175.044h612v792h-612Z"/></clipPath><clipPath id="n" clipPathUnits="userSpaceOnUse"><path d="M187.788-248.77v612h-792v-612Z"/></clipPath><clipPath id="o" clipPathUnits="userSpaceOnUse"><path d="M-220.424-175.044h612v792h-612Z"/></clipPath><clipPath id="p" clipPathUnits="userSpaceOnUse"><path d="m61.825-348.64 227.297 568.252-735.385 294.15-227.298-568.253Z"/></clipPath><clipPath id="q" clipPathUnits="userSpaceOnUse"><path d="M-220.424-175.044h612v792h-612Z"/></clipPath><clipPath id="r" clipPathUnits="userSpaceOnUse"><path d="M-76.815-392.17 305.523 85.749l-618.484 494.79-382.338-477.92Z"/></clipPath><clipPath id="s" clipPathUnits="userSpaceOnUse"><path d="M-220.424-175.044h612v792h-612Z"/></clipPath><clipPath id="t" clipPathUnits="userSpaceOnUse"><path d="m-94.524-414.307 382.338 477.92-618.484 494.79-382.338-477.92Z"/></clipPath><clipPath id="u" clipPathUnits="userSpaceOnUse"><path d="M-220.424-175.044h612v792h-612Z"/></clipPath><clipPath id="v" clipPathUnits="userSpaceOnUse"><path d="M337.707-42.934-132.47 348.874l-507.045-608.462 470.175-391.808Z"/></clipPath><clipPath id="w" clipPathUnits="userSpaceOnUse"><path d="M-220.424-175.044h612v792h-612Z"/></clipPath><clipPath id="x" clipPathUnits="userSpaceOnUse"><path d="m357.981-151.322-382.337 477.92-618.484-494.79 382.338-477.92Z"/></clipPath></defs><path d="M39.686 70.867c0 6.262-5.077 11.339-11.34 11.339-6.261 0-11.338-5.077-11.338-11.339s5.077-11.339 11.339-11.339 11.339 5.077 11.339 11.339z" clip-path="url(#a)" style="fill:none;stroke:#000;stroke-width:.3985;stroke-linecap:butt;stroke-linejoin:miter;stroke-miterlimit:10;stroke-dasharray:none;stroke-opacity:1" transform="matrix(.35278 0 0 -.35278 -6 29)"/><path d="M39.686 0c0 6.262-5.077 11.339-11.34 11.339-6.262 0-11.338-5.077-11.338-11.339s5.077-11.339 11.339-11.339S39.686-6.262 39.686 0z" clip-path="url(#b)" style="fill:none;stroke:#000;stroke-width:.3985;stroke-linecap:butt;stroke-linejoin:miter;stroke-miterlimit:10;stroke-dasharray:none;stroke-opacity:1" transform="matrix(.35278 0 0 -.35278 -6 29)"/><path d="M68.032 70.867c0 6.262-5.076 11.339-11.338 11.339-6.263 0-11.34-5.077-11.34-11.339s5.077-11.339 11.34-11.339c6.262 0 11.338 5.077 11.338 11.339z" clip-path="url(#c)" style="fill:none;stroke:#000;stroke-width:.3985;stroke-linecap:butt;stroke-linejoin:miter;stroke-miterlimit:10;stroke-dasharray:none;stroke-opacity:1" transform="matrix(.35278 0 0 -.35278 -6 29)"/><path d="M68.032 0c0 6.262-5.076 11.339-11.338 11.339-6.263 0-11.34-5.077-11.34-11.339s5.077-11.339 11.34-11.339c6.262 0 11.338 5.077 11.338 11.339z" clip-path="url(#d)" style="fill:none;stroke:#000;stroke-width:.3985;stroke-linecap:butt;stroke-linejoin:miter;stroke-miterlimit:10;stroke-dasharray:none;stroke-opacity:1" transform="matrix(.35278 0 0 -.35278 -6 29)"/><path d="M96.38 70.867c0 6.262-5.077 11.339-11.34 11.339-6.262 0-11.338-5.077-11.338-11.339s5.076-11.339 11.338-11.339c6.263 0 11.34 5.077 11.34 11.339z" clip-path="url(#e)" style="fill:none;stroke:#000;stroke-width:.3985;stroke-linecap:butt;stroke-linejoin:miter;stroke-miterlimit:10;stroke-dasharray:none;stroke-opacity:1" transform="matrix(.35278 0 0 -.35278 -6 29)"/><path d="M96.38 0c0 6.262-5.077 11.339-11.34 11.339-6.262 0-11.338-5.077-11.338-11.339s5.076-11.339 11.338-11.339c6.263 0 11.34 5.077 11.34 11.339z" clip-path="url(#f)" style="fill:none;stroke:#000;stroke-width:.3985;stroke-linecap:butt;stroke-linejoin:miter;stroke-miterlimit:10;stroke-dasharray:none;stroke-opacity:1" transform="matrix(.35278 0 0 -.35278 -6 29)"/><path d="M124.726 70.867c0 6.262-5.076 11.339-11.339 11.339-6.262 0-11.339-5.077-11.339-11.339s5.077-11.339 11.34-11.339c6.261 0 11.338 5.077 11.338 11.339z" clip-path="url(#g)" style="fill:none;stroke:#000;stroke-width:.3985;stroke-linecap:butt;stroke-linejoin:miter;stroke-miterlimit:10;stroke-dasharray:none;stroke-opacity:1" transform="matrix(.35278 0 0 -.35278 -6 29)"/><path d="M124.726 0c0 6.262-5.076 11.339-11.339 11.339-6.262 0-11.339-5.077-11.339-11.339s5.077-11.339 11.34-11.339c6.261 0 11.338 5.077 11.338 11.339z" clip-path="url(#h)" style="fill:none;stroke:#000;stroke-width:.3985;stroke-linecap:butt;stroke-linejoin:miter;stroke-miterlimit:10;stroke-dasharray:none;stroke-opacity:1" transform="matrix(.35278 0 0 -.35278 -6 29)"/><path d="M153.073 70.867c0 6.262-5.077 11.339-11.339 11.339s-11.339-5.077-11.339-11.339 5.077-11.339 11.339-11.339 11.339 5.077 11.339 11.339z" clip-path="url(#i)" style="fill:none;stroke:#000;stroke-width:.3985;stroke-linecap:butt;stroke-linejoin:miter;stroke-miterlimit:10;stroke-dasharray:none;stroke-opacity:1" transform="matrix(.35278 0 0 -.35278 -6 29)"/><path d="M153.073 0c0 6.262-5.077 11.339-11.339 11.339S130.395 6.262 130.395 0s5.077-11.339 11.339-11.339S153.073-6.262 153.073 0z" clip-path="url(#j)" style="fill:none;stroke:#000;stroke-width:.3985;stroke-linecap:butt;stroke-linejoin:miter;stroke-miterlimit:10;stroke-dasharray:none;stroke-opacity:1" transform="matrix(.35278 0 0 -.35278 -6 29)"/><path d="M181.42 70.867c0 6.262-5.077 11.339-11.34 11.339-6.261 0-11.338-5.077-11.338-11.339s5.077-11.339 11.339-11.339 11.339 5.077 11.339 11.339z" clip-path="url(#k)" style="fill:none;stroke:#000;stroke-width:.3985;stroke-linecap:butt;stroke-linejoin:miter;stroke-miterlimit:10;stroke-dasharray:none;stroke-opacity:1" transform="matrix(.35278 0 0 -.35278 -6 29)"/><path d="M181.42 0c0 6.262-5.077 11.339-11.34 11.339-6.261 0-11.338-5.077-11.338-11.339s5.077-11.339 11.339-11.339S181.42-6.262 181.42 0z" clip-path="url(#l)" style="fill:none;stroke:#000;stroke-width:.3985;stroke-linecap:butt;stroke-linejoin:miter;stroke-miterlimit:10;stroke-dasharray:none;stroke-opacity:1" transform="matrix(.35278 0 0 -.35278 -6 29)"/><path d="M28.347 59.329V12.744" clip-path="url(#m)" style="fill:none;stroke:red icc-color(sRGB-IEC61966-2,.1,1,0,0);stroke-width:1.59404;stroke-linecap:butt;stroke-linejoin:miter;stroke-miterlimit:10;stroke-dasharray:none;stroke-opacity:1" transform="matrix(.35278 0 0 -.35278 -6 29)"/><path d="M-2.271 3.029C-2.082 1.893 0 .189.568 0 0-.19-2.082-1.893-2.272-3.029" clip-path="url(#n)" style="fill:none;stroke:red icc-color(sRGB-IEC61966-2,.1,1,0,0);stroke-width:1.27522;stroke-linecap:round;stroke-linejoin:round;stroke-miterlimit:10;stroke-dasharray:none;stroke-opacity:1" transform="matrix(0 .35278 .35278 0 4 24.505)"/><path d="m60.978 60.155 19.33-48.323" clip-path="url(#o)" style="fill:none;stroke:#ff8000 icc-color(sRGB-IEC61966-2,.1,1,.5,0);stroke-width:1.59404;stroke-linecap:butt;stroke-linejoin:miter;stroke-miterlimit:10;stroke-dasharray:none;stroke-opacity:1" transform="matrix(.35278 0 0 -.35278 -6 29)"/><path d="M-2.271 3.029C-2.082 1.893 0 .189.568 0 0-.19-2.082-1.893-2.272-3.029" clip-path="url(#p)" style="fill:none;stroke:#ff8000 icc-color(sRGB-IEC61966-2,.1,1,.5,0);stroke-width:1.27522;stroke-linecap:round;stroke-linejoin:round;stroke-miterlimit:10;stroke-dasharray:none;stroke-opacity:1" transform="rotate(68.199 -7.17 28.905)scale(.35276 -.35276)"/><path d="M92.248 61.858 133.774 9.95" clip-path="url(#q)" style="fill:none;stroke:#00f icc-color(sRGB-IEC61966-2,.1,0,0,1);stroke-width:1.59404;stroke-linecap:butt;stroke-linejoin:miter;stroke-miterlimit:10;stroke-dasharray:none;stroke-opacity:1" transform="matrix(.35278 0 0 -.35278 -6 29)"/><path d="M-2.271 3.029C-2.082 1.893 0 .189.568 0 0-.19-2.082-1.893-2.272-3.029" clip-path="url(#r)" style="fill:none;stroke:#00f icc-color(sRGB-IEC61966-2,.1,0,0,1);stroke-width:1.27522;stroke-linecap:round;stroke-linejoin:round;stroke-miterlimit:10;stroke-dasharray:none;stroke-opacity:1" transform="rotate(51.34 -5.922 55.598)scale(.35276 -.35276)"/><path d="M120.595 61.858 162.12 9.95" clip-path="url(#s)" style="fill:none;stroke:#bf0040 icc-color(sRGB-IEC61966-2,.1,.75,0,.25);stroke-width:1.59404;stroke-linecap:butt;stroke-linejoin:miter;stroke-miterlimit:10;stroke-dasharray:none;stroke-opacity:1" transform="matrix(.35278 0 0 -.35278 -6 29)"/><path d="M-2.271 3.029C-2.082 1.893 0 .189.568 0 0-.19-2.082-1.893-2.272-3.029" clip-path="url(#t)" style="fill:none;stroke:#bf0040 icc-color(sRGB-IEC61966-2,.1,.75,0,.25);stroke-width:1.27522;stroke-linecap:round;stroke-linejoin:round;stroke-miterlimit:10;stroke-dasharray:none;stroke-opacity:1" transform="rotate(51.34 -.922 66.001)scale(.35276 -.35276)"/><path d="M132.87 63.48 66.484 8.159" clip-path="url(#u)" style="fill:none;stroke:#00adef;stroke-width:1.59404;stroke-linecap:butt;stroke-linejoin:miter;stroke-miterlimit:10;stroke-dasharray:none;stroke-opacity:1" transform="matrix(.35278 0 0 -.35278 -6 29)"/><path d="M-2.271 3.029C-2.082 1.893 0 .189.568 0 0-.19-2.082-1.893-2.272-3.029" clip-path="url(#v)" style="fill:none;stroke:#00adef;stroke-width:1.27522;stroke-linecap:round;stroke-linejoin:round;stroke-miterlimit:10;stroke-dasharray:none;stroke-opacity:1" transform="matrix(-.271 .22583 .22583 .271 17.454 26.122)"/><path d="M162.874 61.858 121.348 9.95" clip-path="url(#w)" style="fill:none;stroke:#ec008c;stroke-width:1.59404;stroke-linecap:butt;stroke-linejoin:miter;stroke-miterlimit:10;stroke-dasharray:none;stroke-opacity:1" transform="matrix(.35278 0 0 -.35278 -6 29)"/><path d="M-2.271 3.029C-2.082 1.893 0 .189.568 0 0-.19-2.082-1.893-2.272-3.029" clip-path="url(#x)" style="fill:none;stroke:#ec008c;stroke-width:1.27522;stroke-linecap:round;stroke-linejoin:round;stroke-miterlimit:10;stroke-dasharray:none;stroke-opacity:1" transform="rotate(128.66 12.279 21.59)scale(.35276 -.35276)"/></svg>